<?xml version="1.0" encoding="UTF-8"?>
<svg width="100px" height="27px" viewBox="0 0 100 27" version="1.1" xmlns="http://www.w3.org/2000/svg" xmlns:xlink="http://www.w3.org/1999/xlink">
    <!-- Generator: Sketch 56.3 (81716) - https://sketch.com -->
    <title>Brand Elements/Netflix_Logotype</title>
    <desc>Created with Sketch.</desc>
    <defs>
        <path d="M13.7017553,25.2563388 L13.7017553,0 L9.49015018,0 L9.49015018,15.3281789 L4.01506354,0 L0,0 L0,27.000095 C1.43194574,26.7750942 2.77965937,26.5782185 4.29583721,26.4094679 L4.29583721,11.671916 L9.09706703,25.8188408 C10.697477,25.59384 12.2136548,25.5094647 13.7017553,25.2563388 Z M22.012656,9.90003482 L22.012656,4.21876484 L29.4531584,4.21876484 L29.4531584,0 L17.8010509,0 L17.8010509,24.9188376 L29.4531584,23.9907094 L29.4531584,19.9406951 C26.9542727,20.0250704 24.4834644,20.2219461 22.012656,20.3906967 L22.012656,14.1187997 C23.5849886,14.0344244 25.7750233,14.0344244 27.6281295,14.0344244 L27.6281295,9.81565952 C26.140029,9.81565952 23.6411433,9.90003482 22.012656,9.90003482 Z M45.1203294,4.21876484 L45.1203294,0 L32.176663,0 L32.176663,4.21876484 L36.528655,4.21876484 L36.528655,23.6813333 C37.904446,23.6250831 39.3363917,23.6250831 40.7402601,23.6250831 L40.7402601,4.21876484 L45.1203294,4.21876484 Z M51.971207,9.59065873 L51.971207,4.21876484 L59.608251,4.21876484 L59.608251,0 L47.8157567,0 L47.8157567,23.4000823 L51.971207,23.4000823 L51.971207,13.8094236 L57.7270673,13.8094236 L57.7270673,9.59065873 L51.971207,9.59065873 Z M66.4310512,19.6875692 L66.4310512,0 L62.2194461,0 L62.2194461,23.6813333 C66.0660454,23.7657086 69.8284127,23.9907094 73.5907799,24.2438353 L73.5907799,20.0531955 C71.2603584,19.9406951 68.8457048,19.7438194 66.4310512,19.6875692 Z M77.1566056,24.5250862 C78.5043192,24.6094615 79.9081876,24.6657117 81.2839786,24.8344623 L81.2839786,0 L77.1566056,0 L77.1566056,24.5250862 Z M99.7308089,0 L95.1261207,0 L92.1779971,7.08752492 L89.4264151,0 L84.8778816,0 L89.7914209,12.6844196 L84.372489,25.0594631 C85.8886668,25.2563388 87.3767673,25.3407141 88.8929451,25.59384 L91.9814555,18.4219398 L94.9857339,26.2407173 C96.5861438,26.4938432 98.1584764,26.7750942 99.7308089,27.000095 L94.3961091,12.8531702 L99.7308089,0 Z" id="path-1"></path>
    </defs>
    <g id="Symbols" stroke="none" stroke-width="1" fill="none" fill-rule="evenodd">
        <g id="Logo/Netflix_Partner_Lockup--/-Colored" transform="translate(-141.000000, -12.000000)">
            <g id="Brand-Elements/Netflix_Logotype" transform="translate(141.000000, 12.000000)">
                <mask id="mask-2" fill="white">
                    <use xlink:href="#path-1"></use>
                </mask>
                <use id="Netflix-Logotype" fill="#E50914" xlink:href="#path-1"></use>
            </g>
        </g>
    </g>
</svg>